<svg xmlns="http://www.w3.org/2000/svg" width="300" height="190" fill="none" aria-labelledby="descId" role="img" viewBox="0 0 300 190"><title id="titleId"/><desc id="descId"/><style>.header{font:600 18px &apos;Segoe UI&apos;,Ubuntu,Sans-Serif;fill:#006aff;animation:fadeInAnimation .8s ease-in-out forwards}@supports (-moz-appearance:auto){.header{font-size:15.5px}}.lang-name{font:400 11px &quot;Segoe UI&quot;,Ubuntu,Sans-Serif;fill:#417e87}.stagger{opacity:0;animation:fadeInAnimation .3s ease-in-out forwards}#rect-mask rect{animation:slideInAnimation 1s ease-in-out forwards}</style><rect width="299" height="99%" x=".5" y=".5" fill="#ffffff00" stroke="#e4e2e2" stroke-opacity="1" data-testid="card-bg" rx="4.5"/><g data-testid="card-title"><g><text x="0" y="0" class="header" data-testid="header" transform="translate(25, 35) translate(0, 0)">Most Used Languages</text></g></g><g data-testid="main-card-body" transform="translate(0, 55)"><svg x="25" data-testid="lang-items"><mask id="rect-mask"><rect width="250" height="8" x="0" y="0" fill="#fff" rx="5"/></mask><rect width="233.6" height="8" x="0" y="0" fill="#DA5B0B" data-testid="lang-progress" mask="url(#rect-mask)"/><rect width="14.52" height="8" x="233.6" y="0" fill="#3572A5" data-testid="lang-progress" mask="url(#rect-mask)"/><rect width="11.41" height="8" x="248.12" y="0" fill="#3D6117" data-testid="lang-progress" mask="url(#rect-mask)"/><rect width="10.31" height="8" x="249.53" y="0" fill="#41b883" data-testid="lang-progress" mask="url(#rect-mask)"/><rect width="10.09" height="8" x="249.84" y="0" fill="#89e051" data-testid="lang-progress" mask="url(#rect-mask)"/><rect width="10.02" height="8" x="249.93" y="0" fill="#384d54" data-testid="lang-progress" mask="url(#rect-mask)"/><rect width="10.02" height="8" x="249.95" y="0" fill="#f1e05a" data-testid="lang-progress" mask="url(#rect-mask)"/><rect width="10.02" height="8" x="249.97" y="0" fill="#427819" data-testid="lang-progress" mask="url(#rect-mask)"/><g><g><g><g class="stagger" style="animation-delay:450ms" transform="translate(0, 25) translate(0, 0) translate(0, 0)"><circle cx="5" cy="6" r="5" fill="#DA5B0B"/><text x="15" y="10" class="lang-name" data-testid="lang-name">Jupyter Notebook 93.44%</text></g></g><g><g class="stagger" style="animation-delay:600ms" transform="translate(0, 25) translate(0, 0) translate(0, 25)"><circle cx="5" cy="6" r="5" fill="#3572A5"/><text x="15" y="10" class="lang-name" data-testid="lang-name">Python 5.81%</text></g></g><g><g class="stagger" style="animation-delay:750ms" transform="translate(0, 25) translate(0, 0) translate(0, 50)"><circle cx="5" cy="6" r="5" fill="#3D6117"/><text x="15" y="10" class="lang-name" data-testid="lang-name">TeX 0.57%</text></g></g><g><g class="stagger" style="animation-delay:900ms" transform="translate(0, 25) translate(0, 0) translate(0, 75)"><circle cx="5" cy="6" r="5" fill="#41b883"/><text x="15" y="10" class="lang-name" data-testid="lang-name">Vue 0.12%</text></g></g></g><g><g><g class="stagger" style="animation-delay:450ms" transform="translate(0, 25) translate(150, 0) translate(0, 0)"><circle cx="5" cy="6" r="5" fill="#89e051"/><text x="15" y="10" class="lang-name" data-testid="lang-name">Shell 0.03%</text></g></g><g><g class="stagger" style="animation-delay:600ms" transform="translate(0, 25) translate(150, 0) translate(0, 25)"><circle cx="5" cy="6" r="5" fill="#384d54"/><text x="15" y="10" class="lang-name" data-testid="lang-name">Dockerfile 0.01%</text></g></g><g><g class="stagger" style="animation-delay:750ms" transform="translate(0, 25) translate(150, 0) translate(0, 50)"><circle cx="5" cy="6" r="5" fill="#f1e05a"/><text x="15" y="10" class="lang-name" data-testid="lang-name">JavaScript 0.01%</text></g></g><g><g class="stagger" style="animation-delay:900ms" transform="translate(0, 25) translate(150, 0) translate(0, 75)"><circle cx="5" cy="6" r="5" fill="#427819"/><text x="15" y="10" class="lang-name" data-testid="lang-name">Makefile 0.01%</text></g></g></g></g></svg></g></svg>